<svg width="44" height="39" viewBox="0 0 44 39" fill="none" xmlns="http://www.w3.org/2000/svg">
<path d="M5.98199 20.54L5.03524 9.59394C5.02585 7.39396 5.71709 5.34099 7.10896 3.43504C8.40084 1.5295 10.1968 0.571823 12.4967 0.562003C14.6967 0.552609 16.3499 1.29556 17.4563 2.79085C18.5631 4.38614 19.1206 6.13377 19.1287 8.03376C19.1582 14.9337 17.437 21.6911 13.9652 28.306C10.3939 35.0213 6.9082 38.3862 3.50823 38.4007C2.70823 38.4041 2.00696 38.1071 1.4044 37.5097C0.802273 37.0123 0.499501 36.3636 0.496085 35.5636C0.493096 34.8636 1.43497 32.9595 3.32172 29.8514C5.10847 26.7438 5.99522 23.64 5.98199 20.54ZM30.2818 20.4362L29.335 9.49019C29.3256 7.29021 30.0169 5.23724 31.4087 3.33128C32.7006 1.42574 34.4965 0.468067 36.7965 0.458246C38.9965 0.448852 40.6497 1.1918 41.7561 2.68709C42.8629 4.28238 43.4204 6.03002 43.4285 7.93C43.4579 14.8299 41.7368 21.5873 38.265 28.2022C34.6936 34.9175 31.208 38.2825 27.808 38.297C27.008 38.3004 26.3067 38.0034 25.7042 37.406C25.1021 36.9085 24.7993 36.2598 24.7959 35.4598C24.7929 34.7598 25.7348 32.8558 27.6215 29.7477C29.4082 26.64 30.295 23.5362 30.2818 20.4362Z" fill="white"/>
</svg>
