<svg width="44" height="39" viewBox="0 0 44 39" fill="none" xmlns="http://www.w3.org/2000/svg">
<path d="M38 18.65L38.9 29.6C38.9 31.8 38.2 33.85 36.8 35.75C35.5 37.65 33.7 38.6 31.4 38.6C29.2 38.6 27.55 37.85 26.45 36.35C25.35 34.75 24.8 33 24.8 31.1C24.8 24.2 26.55 17.45 30.05 10.85C33.65 4.14999 37.15 0.799993 40.55 0.799993C41.35 0.799993 42.05 1.09999 42.65 1.69999C43.25 2.2 43.55 2.85 43.55 3.64999C43.55 4.35 42.6 6.25 40.7 9.35C38.9 12.45 38 15.55 38 18.65ZM13.7 18.65L14.6 29.6C14.6 31.8 13.9 33.85 12.5 35.75C11.2 37.65 9.4 38.6 7.1 38.6C4.9 38.6 3.25 37.85 2.15 36.35C1.05 34.75 0.5 33 0.5 31.1C0.5 24.2 2.25 17.45 5.75 10.85C9.35 4.14999 12.85 0.799993 16.25 0.799993C17.05 0.799993 17.75 1.09999 18.35 1.69999C18.95 2.2 19.25 2.85 19.25 3.64999C19.25 4.35 18.3 6.25 16.4 9.35C14.6 12.45 13.7 15.55 13.7 18.65Z" fill="white"/>
</svg>
