<svg width="18" height="18" viewBox="0 0 18 18" fill="none" xmlns="http://www.w3.org/2000/svg">
<path d="M9 9.375C8.30381 9.375 7.63613 9.65156 7.14384 10.1438C6.65156 10.6361 6.375 11.3038 6.375 12C6.375 12.6962 6.65156 13.3639 7.14384 13.8562C7.63613 14.3484 8.30381 14.625 9 14.625C9.69619 14.625 10.3639 14.3484 10.8562 13.8562C11.3484 13.3639 11.625 12.6962 11.625 12C11.625 11.3038 11.3484 10.6361 10.8562 10.1438C10.3639 9.65156 9.69619 9.375 9 9.375ZM7.875 12C7.875 11.7016 7.99353 11.4155 8.2045 11.2045C8.41548 10.9935 8.70163 10.875 9 10.875C9.29837 10.875 9.58452 10.9935 9.7955 11.2045C10.0065 11.4155 10.125 11.7016 10.125 12C10.125 12.2984 10.0065 12.5845 9.7955 12.7955C9.58452 13.0065 9.29837 13.125 9 13.125C8.70163 13.125 8.41548 13.0065 8.2045 12.7955C7.99353 12.5845 7.875 12.2984 7.875 12Z" fill="#00A4D9"/>
<path d="M13.1445 3.83701L10.7603 0.494263L1.9935 7.49776L1.5075 7.49251V7.50001H1.125V16.5H16.875V7.50001H16.1535L14.718 3.30076L13.1445 3.83701ZM14.5687 7.50001H7.04775L12.6495 5.59051L13.791 5.22526L14.5687 7.50001ZM11.6625 4.34251L5.88 6.31351L10.4595 2.65501L11.6625 4.34251ZM2.625 13.6268V10.3718C2.94163 10.26 3.22924 10.0788 3.46673 9.84145C3.70422 9.60409 3.88558 9.31658 3.9975 9.00001H14.0025C14.1143 9.31672 14.2956 9.60438 14.5331 9.84187C14.7706 10.0794 15.0583 10.2607 15.375 10.3725V13.6275C15.0583 13.7393 14.7706 13.9207 14.5331 14.1581C14.2956 14.3956 14.1143 14.6833 14.0025 15H3.999C3.88664 14.6833 3.70497 14.3956 3.46726 14.158C3.22956 13.9205 2.9418 13.739 2.625 13.6268Z" fill="#00A4D9"/>
</svg>
