<svg width="16" height="16" viewBox="0 0 16 16" fill="none" xmlns="http://www.w3.org/2000/svg">
<path d="M7.75008 3.62499C7.75008 3.44499 7.75008 3.35574 7.81008 3.30024C7.87158 3.24474 7.95558 3.25149 8.12508 3.26574C8.8806 3.32884 9.60794 3.58181 10.2396 4.00116C10.8712 4.42051 11.3866 4.99265 11.738 5.66445C12.0894 6.33626 12.2654 7.08596 12.2496 7.84395C12.2337 8.60194 12.0267 9.34366 11.6476 10.0002C11.2685 10.6568 10.7297 11.207 10.0811 11.5996C9.43254 11.9923 8.69529 12.2147 7.93779 12.2462C7.18029 12.2778 6.4271 12.1174 5.74814 11.7801C5.06917 11.4427 4.48646 10.9393 4.05408 10.3165C3.95658 10.177 3.90858 10.1072 3.92658 10.027C3.94458 9.94674 4.02258 9.90249 4.17783 9.81249L7.56258 7.85799C7.65408 7.80549 7.69983 7.77924 7.72458 7.73574C7.75008 7.69224 7.75008 7.63899 7.75008 7.53324V3.62499Z" fill="#00A4D9"/>
<path d="M7.75 14.5C11.4779 14.5 14.5 11.4779 14.5 7.75C14.5 4.02208 11.4779 1 7.75 1C4.02208 1 1 4.02208 1 7.75C1 11.4779 4.02208 14.5 7.75 14.5Z" stroke="#00A4D9" stroke-width="2"/>
</svg>
