<svg width="34" height="34" viewBox="0 0 34 34" fill="none" xmlns="http://www.w3.org/2000/svg">
<path d="M4.57544 17.1273H1.87292M31.6006 17.1273H28.8981M16.7368 29.2886V31.9911M16.7368 2.26343V4.96594M8.13735 25.7267L6.22667 27.6373M27.2468 6.61718L25.3362 8.52786M8.13735 8.52786L6.22667 6.61718M27.2468 27.6373L25.3362 25.7267M24.8443 17.1273C24.8443 19.2775 23.9901 21.3397 22.4697 22.8602C20.9492 24.3806 18.887 25.2348 16.7368 25.2348C14.5865 25.2348 12.5243 24.3806 11.0039 22.8602C9.48339 21.3397 8.62921 19.2775 8.62921 17.1273C8.62921 14.977 9.48339 12.9148 11.0039 11.3944C12.5243 9.8739 14.5865 9.01971 16.7368 9.01971C18.887 9.01971 20.9492 9.8739 22.4697 11.3944C23.9901 12.9148 24.8443 14.977 24.8443 17.1273Z" stroke="#00A4D9" stroke-width="3" stroke-miterlimit="10" stroke-linecap="round"/>
</svg>
